<svg xmlns="http://www.w3.org/2000/svg" width="100" height="100" viewBox="0 0 100 100" style="enable-background:new 0 0 100 100" xml:space="preserve">
	<path style="fill:#660553" d="M10 0h20v20H10z"/>
	<path style="fill:#840762" d="M30 0h20v20H30zM10 20h20v20H10z"/>
	<path style="fill:#d34253" d="M50 0h20v20H50zM10 40h20v20H10z"/>
	<path style="fill:#f88b88" d="M70 0h20v20H70zM10 60h20v20H10z"/>
	<g>
		<path style="fill:#fee472" d="M30 80h20v20H30zM50 60h20v20H50zM70 40h20v20H70z"/>
	</g>
	<g>
		<path style="fill:#fdb187" d="M10 80h20v20H10zM70 20h20v20H70z"/>
	</g>
</svg>
